<?xml version="1.0" encoding="utf-8"?>
<!-- Generator: Adobe Illustrator 19.0.1, SVG Export Plug-In . SVG Version: 6.00 Build 0)  -->
<!DOCTYPE svg PUBLIC "-//W3C//DTD SVG 1.0//EN" "http://www.w3.org/TR/2001/REC-SVG-20010904/DTD/svg10.dtd">
<svg version="1.0" xmlns="http://www.w3.org/2000/svg" xmlns:xlink="http://www.w3.org/1999/xlink" x="0px" y="0px"
	 viewBox="0 0 766.3 788.9" enable-background="new 0 0 766.3 788.9" xml:space="preserve">
<g id="Background" display="none">
	<rect x="-10.4" y="-311" display="inline" fill="#F36F54" width="1008.6" height="1119.4"/>
</g>
<g id="Shadow">
	<polygon fill="#E9583F" points="431.6,33.1 397.8,33.1 397.8,55.6 	"/>
	<path fill="#E9583F" d="M673.4,285.5c11.6,0,23-1.6,34.1-4.7c11.1-3.1,20.9-7.7,29.5-13.8c8.5-6.1,15.4-13.7,20.5-22.8
		c5.1-9.1,7.7-19.7,7.7-31.9c0-9.8-1.6-18.6-4.9-26.4c-3.3-7.9-7.5-14.8-12.8-20.7c-5.3-6-11.5-10.8-18.7-14.6
		c-7.2-3.8-14.6-6.5-22.2-8.1c16.3-4.6,28.4-13.3,36.4-26c8-12.7,12-27.5,12-44.3c0-12.5-2.2-23.2-6.5-32.3
		c-4.3-9.1-10.4-16.5-18.1-22.2c-7.7-5.7-17.1-9.9-28-12.6c-11-2.7-23.1-4.1-36.4-4.1h-92.7L363.9,140.9l0.2-107.8h-22.8V1
		l-710,469.7l-11.6,535.1L734.3,268.9"/>
</g>
<g id="Letters">
	<g>
		<path fill="#FFFFFF" d="M342.3,252.4h22.8V32.1h-22.8V0h90.2v32.1h-33.7v220.3h115v-30.5H546v62.6H342.3V252.4z"/>
		<path fill="#FFFFFF" d="M574.4,252.4h18.3V32.1h-18.3V0h92.7c13.3,0,25.4,1.4,36.4,4.1c11,2.7,20.3,6.9,28,12.6
			c7.7,5.7,13.7,13.1,18.1,22.2c4.3,9.1,6.5,19.9,6.5,32.3c0,16.8-4,31.6-12,44.3c-8,12.7-20.1,21.4-36.4,26
			c7.6,1.6,15,4.3,22.2,8.1c7.2,3.8,13.4,8.7,18.7,14.6c5.3,6,9.6,12.9,12.8,20.7c3.3,7.9,4.9,16.7,4.9,26.4
			c0,12.2-2.6,22.8-7.7,31.9c-5.2,9.1-12,16.7-20.5,22.8c-8.5,6.1-18.4,10.7-29.5,13.8c-11.1,3.1-22.5,4.7-34.1,4.7h-100V252.4z
			 M626.4,32.1v93.1h43.9c16,0,28.7-4.5,38-13.4c9.3-8.9,14-20.7,14-35.4c0-16-4.9-27.4-14.6-34.1c-9.8-6.8-22.5-10.2-38.2-10.2
			H626.4z M626.4,157.3v95.1h45.1c8.4,0,16.3-0.9,23.6-2.8c7.3-1.9,13.8-4.8,19.3-8.7c5.5-3.9,10-8.7,13.2-14.4
			c3.3-5.7,4.9-12.5,4.9-20.3c0-8.4-1.9-15.7-5.7-22c-3.8-6.2-8.7-11.3-14.8-15.2c-6.1-3.9-13.2-6.8-21.3-8.7
			c-8.1-1.9-16.4-2.8-24.8-2.8H626.4z"/>
	</g>
</g>
<g id="Shadow_black__x26__white" display="none">
	<polygon display="inline" fill="#414042" points="431.6,33.1 397.8,33.1 397.8,55.6 	"/>
	<path display="inline" fill="#414042" d="M673.4,285.5c11.6,0,23-1.6,34.1-4.7c11.1-3.1,20.9-7.7,29.5-13.8
		c8.5-6.1,15.4-13.7,20.5-22.8c5.1-9.1,7.7-19.7,7.7-31.9c0-9.8-1.6-18.6-4.9-26.4c-3.3-7.9-7.5-14.8-12.8-20.7
		c-5.3-6-11.5-10.8-18.7-14.6c-7.2-3.8-14.6-6.5-22.2-8.1c16.3-4.6,28.4-13.3,36.4-26c8-12.7,12-27.5,12-44.3
		c0-12.5-2.2-23.2-6.5-32.3c-4.3-9.1-10.4-16.5-18.1-22.2c-7.7-5.7-17.1-9.9-28-12.6c-11-2.7-23.1-4.1-36.4-4.1h-92.7L363.9,140.9
		l0.2-107.8h-22.8V1l-710,469.7l-11.6,535.1L734.3,268.9"/>
</g>
<g id="Letters_black__x26__white" display="none">
	<g display="inline">
		<path fill="#808285" d="M341.3,253.4h22.8V33.1h-22.8V1h90.2v32.1h-33.7v220.3h115v-30.5H545v62.6H341.3V253.4z"/>
		<path fill="#808285" d="M573.4,253.4h18.3V33.1h-18.3V1h92.7c13.3,0,25.4,1.4,36.4,4.1c11,2.7,20.3,6.9,28,12.6
			c7.7,5.7,13.7,13.1,18.1,22.2c4.3,9.1,6.5,19.9,6.5,32.3c0,16.8-4,31.6-12,44.3c-8,12.7-20.1,21.4-36.4,26
			c7.6,1.6,15,4.3,22.2,8.1c7.2,3.8,13.4,8.7,18.7,14.6c5.3,6,9.6,12.9,12.8,20.7c3.3,7.9,4.9,16.7,4.9,26.4
			c0,12.2-2.6,22.8-7.7,31.9c-5.2,9.1-12,16.7-20.5,22.8c-8.5,6.1-18.4,10.7-29.5,13.8c-11.1,3.1-22.5,4.7-34.1,4.7h-100V253.4z
			 M625.4,33.1v93.1h43.9c16,0,28.7-4.5,38-13.4c9.3-8.9,14-20.7,14-35.4c0-16-4.9-27.4-14.6-34.1c-9.8-6.8-22.5-10.2-38.2-10.2
			H625.4z M625.4,158.3v95.1h45.1c8.4,0,16.3-0.9,23.6-2.8c7.3-1.9,13.8-4.8,19.3-8.7c5.5-3.9,10-8.7,13.2-14.4
			c3.3-5.7,4.9-12.5,4.9-20.3c0-8.4-1.9-15.7-5.7-22c-3.8-6.2-8.7-11.3-14.8-15.2c-6.1-3.9-13.2-6.8-21.3-8.7
			c-8.1-1.9-16.4-2.8-24.8-2.8H625.4z"/>
	</g>
</g>
</svg>
