<?xml version="1.0" standalone="no"?>
<!DOCTYPE svg PUBLIC "-//W3C//DTD SVG 20010904//EN"
 "http://www.w3.org/TR/2001/REC-SVG-20010904/DTD/svg10.dtd">
<svg version="1.0" xmlns="http://www.w3.org/2000/svg"
 width="240.000000pt" height="240.000000pt" viewBox="0 0 240.000000 240.000000"
 preserveAspectRatio="xMidYMid meet">
<metadata>
Created by potrace 1.11, written by Peter Selinger 2001-2013
</metadata>
<g transform="translate(0.000000,240.000000) scale(0.100000,-0.100000)"
fill="#000000" stroke="none">
<path d="M0 1200 l0 -1200 1200 0 1200 0 0 1200 0 1200 -1200 0 -1200 0 0
-1200z m960 830 l0 -60 -60 0 -60 0 0 -395 0 -395 204 0 205 0 3 53 3 52 55 0
55 0 3 -112 3 -113 -366 0 -365 0 0 60 0 60 40 0 40 0 0 395 0 395 -40 0 -40
0 0 60 0 60 160 0 160 0 0 -60z m913 51 c92 -12 174 -54 211 -108 24 -34 30
-55 34 -117 3 -46 0 -94 -8 -121 -15 -52 -76 -127 -119 -145 l-30 -12 58 -29
c155 -77 189 -269 71 -390 -79 -81 -124 -92 -392 -97 l-228 -4 0 61 0 61 35 0
35 0 -2 393 -3 392 -32 3 -33 3 0 60 0 59 168 0 c92 -1 198 -5 235 -9z"/>
<path d="M1660 1799 l0 -172 108 5 c118 5 153 17 195 68 30 35 42 84 34 142
-12 92 -78 127 -239 128 l-98 0 0 -171z"/>
<path d="M1660 1351 l0 -171 118 0 c92 0 126 4 157 19 104 47 135 161 67 243
-44 52 -102 71 -229 76 l-113 5 0 -172z"/>
</g>
</svg>
